HIERARCHY
ROOT Hip
{
	OFFSET 0.000000 0.000000 0.000000 
	CHANNELS 6 Xposition Yposition Zposition Xrotation Yrotation Zrotation
	JOINT LowerSpine
	{
		OFFSET 0.000000 8.345300 -5.129200 
		CHANNELS 3 Xrotation Yrotation Zrotation
		JOINT MiddleSpine
		{
			OFFSET 10.856900 0.000000 0.000000 
			CHANNELS 3 Xrotation Yrotation Zrotation
			JOINT Chest
			{
				OFFSET 15.298400 0.000000 0.000000 
				CHANNELS 3 Xrotation Yrotation Zrotation
				JOINT Neck
				{
					OFFSET 25.661800 -0.598600 0.000000 
					CHANNELS 3 Xrotation Yrotation Zrotation
					JOINT Head
					{
						OFFSET 8.882900 0.000000 0.000000 
						CHANNELS 3 Xrotation Yrotation Zrotation
						End Site
						{
							OFFSET 19.739901 0.000000 0.000000 
						}
					}
				}
				JOINT RClavicle
				{
					OFFSET 23.687799 0.000000 3.158400 
					CHANNELS 3 Xrotation Yrotation Zrotation
					JOINT RShoulder
					{
						OFFSET -15.594500 -3.948000 0.987000 
						CHANNELS 3 Xrotation Yrotation Zrotation
						JOINT RForearm
						{
							OFFSET -31.337000 0.000000 0.197400 
							CHANNELS 3 Xrotation Yrotation Zrotation
							JOINT RHand
							{
								OFFSET -26.402100 0.000000 0.000000 
								CHANNELS 3 Xrotation Yrotation Zrotation
								End Site
								{
									OFFSET -15.791900 -0.987000 0.000000 
								}
							}
						}
					}
				}
				JOINT LClavicle
				{
					OFFSET 23.687799 0.000000 -3.158400 
					CHANNELS 3 Xrotation Yrotation Zrotation
					JOINT LShoulder
					{
						OFFSET -15.594500 -3.948000 -0.987000 
						CHANNELS 3 Xrotation Yrotation Zrotation
						JOINT LForearm
						{
							OFFSET -31.337000 0.000000 -0.197400 
							CHANNELS 3 Xrotation Yrotation Zrotation
							JOINT LHand
							{
								OFFSET -26.402100 0.000000 0.000000 
								CHANNELS 3 Xrotation Yrotation Zrotation
								End Site
								{
									OFFSET -15.791900 -0.987000 0.000000 
								}
							}
						}
					}
				}
			}
		}
	}
	JOINT RThigh
	{
		OFFSET -8.882900 0.448100 0.000000 
		CHANNELS 3 Xrotation Yrotation Zrotation
		JOINT RShin
		{
			OFFSET 43.131599 0.000000 -0.493500 
			CHANNELS 3 Xrotation Yrotation Zrotation
			JOINT RFoot
			{
				OFFSET 0.000000 -44.725601 -0.404700 
				CHANNELS 3 Xrotation Yrotation Zrotation
				JOINT RToe
				{
					OFFSET 0.000000 -3.933200 12.195300 
					CHANNELS 3 Xrotation Yrotation Zrotation
					End Site
					{
						OFFSET 6.772500 0.000000 0.000000 
					}
				}
			}
		}
	}
	JOINT LThigh
	{
		OFFSET 8.882900 0.448100 0.000000 
		CHANNELS 3 Xrotation Yrotation Zrotation
		JOINT LShin
		{
			OFFSET 43.131599 0.000000 0.493500 
			CHANNELS 3 Xrotation Yrotation Zrotation
			JOINT LFoot
			{
				OFFSET 0.000000 -44.725601 0.404700 
				CHANNELS 3 Xrotation Yrotation Zrotation
				JOINT LToe
				{
					OFFSET 0.000000 -3.933200 -12.195300 
					CHANNELS 3 Xrotation Yrotation Zrotation
					End Site
					{
						OFFSET 6.772500 0.000000 0.000000 
					}
				}
			}
		}
	}
}
MOTION
Frames: 17
Frame Time: 0.016949
10.607300 92.870201 4.804600 -6.518770 -2.349628 -1.879757 -89.999992 -90.000000 0.000000 0.093372 0.244816 0.096916 0.293648 0.787599 0.356950 0.000000 0.000000 0.000000 0.000000 0.000000 0.000000 90.000023 0.000526 -90.007027 -68.770920 1.654456 64.579910 35.792179 80.102386 -36.457668 0.000000 0.000000 0.000000 -90.021240 0.674823 -80.921928 -18.903240 -33.902630 62.983879 -1.720249 -18.563200 -6.185433 0.000000 0.000000 0.000000 -94.115028 86.798882 15.968570 89.971832 3.143305 89.997612 -5.162840 0.082963 0.044938 177.029297 90.000000 0.000000 -140.848297 88.937439 63.781368 -89.991203 -0.984338 89.999046 6.716464 1.335354 -0.626090 180.517197 -90.000000 0.000000 
10.596700 92.866096 4.849700 -6.537657 -2.293158 -1.975594 -89.999992 -90.000000 0.000000 0.084338 0.198232 0.115442 0.279560 0.711257 0.383251 0.000000 0.000000 0.000000 0.000000 0.000000 0.000000 89.999336 -0.014228 -89.808708 -68.903549 1.274552 64.578003 35.716660 80.084778 -36.383282 0.000000 0.000000 0.000000 -90.018883 0.653086 -81.215637 -18.746481 -33.891209 63.424629 -1.734968 -18.691839 -6.190135 0.000000 0.000000 0.000000 -93.988029 86.678688 16.010410 89.973831 2.919322 89.997726 -4.947730 0.084145 0.045329 176.840500 90.000000 0.000000 -135.578903 88.860611 58.552010 -89.990936 -1.013844 89.999023 6.848062 0.977542 -0.465436 180.420105 -90.000000 0.000000 
10.602900 92.846001 4.843100 -6.443065 -2.188383 -2.054417 -89.999992 -90.000000 0.000000 0.070923 0.177282 0.141005 0.233145 0.610259 0.470694 0.000000 0.000000 0.000000 0.000000 0.000000 0.000000 89.998558 -0.032529 -89.562630 -69.114014 1.242773 64.274841 36.057079 80.163513 -36.718658 0.000000 0.000000 0.000000 -90.016144 0.626527 -81.574211 -18.444679 -34.117191 64.009277 -1.707506 -18.451651 -6.181389 0.000000 0.000000 0.000000 -93.984222 86.577583 15.945280 89.974609 2.831429 89.997787 -4.880390 0.129058 0.066643 176.768295 90.000000 0.000000 -131.592102 88.783752 54.412781 -89.989990 -1.119655 89.998932 7.107177 0.637998 -0.293762 180.217606 -90.000000 0.000000 
10.608600 92.823502 4.783000 -6.257432 -2.102705 -2.140646 -89.999992 -90.000000 0.000000 0.050561 0.142481 0.182520 0.164921 0.482268 0.610010 0.000000 0.000000 0.000000 0.000000 0.000000 0.000000 89.997841 -0.051599 -89.306351 -69.392738 1.366269 63.974609 36.451241 80.252747 -37.107079 0.000000 0.000000 0.000000 -90.013329 0.597222 -81.969673 -18.025290 -34.521770 64.704552 -1.647887 -17.927900 -6.162778 0.000000 0.000000 0.000000 -94.134567 86.456947 15.742440 89.972313 3.087638 89.997643 -5.064201 0.022347 0.022025 176.910995 90.000000 0.000000 -128.170700 88.704819 50.639149 -89.987762 -1.367997 89.998734 7.402193 0.597629 -0.263235 180.050598 -90.000000 0.000000 
10.607100 92.805397 4.735100 -6.084370 -2.083869 -2.234210 -89.999992 -90.000000 0.000000 0.029505 0.097140 0.231976 0.095761 0.328877 0.774515 0.000000 0.000000 0.000000 0.000000 0.000000 0.000000 89.997269 -0.068475 -89.079552 -69.592400 1.443465 64.094467 36.557301 80.276413 -37.211620 0.000000 0.000000 0.000000 -90.010880 0.569832 -82.339073 -17.667530 -34.812382 65.390007 -1.598428 -17.491020 -6.147733 0.000000 0.000000 0.000000 -94.351868 86.346252 15.582650 89.969131 3.442208 89.997467 -5.343922 0.008000 0.015837 177.208496 90.000000 0.000000 -125.313698 88.627907 47.512150 -89.986549 -1.503523 89.998619 7.604186 0.697274 -0.304916 180.000000 -90.000000 0.000000 
10.595600 92.789200 4.730300 -5.965154 -2.039561 -2.357599 -89.999992 -90.000000 0.000000 0.014205 0.046657 0.279984 0.045929 0.162456 0.934634 0.000000 0.000000 0.000000 0.000000 0.000000 0.000000 89.996887 -0.081094 -88.909958 -69.613701 1.257669 64.573097 36.677551 80.303093 -37.330139 0.000000 0.000000 0.000000 -90.009163 0.549342 -82.615250 -17.424900 -34.911781 65.914581 -1.571530 -17.252520 -6.139702 0.000000 0.000000 0.000000 -94.360703 86.206596 15.410480 89.967903 3.580289 89.997398 -5.463297 0.068492 0.039812 177.392807 90.000000 0.000000 -121.673798 88.509583 43.766972 -89.986816 -1.473823 89.998642 7.748737 0.615303 -0.266486 180.000000 -90.000000 0.000000 
10.585000 92.774597 4.743300 -5.878402 -1.914318 -2.497501 -89.999992 -90.000000 0.000000 0.007327 -0.001420 0.320219 0.023771 0.005883 1.069191 0.000000 0.000000 0.000000 0.000000 0.000000 0.000000 89.996658 -0.089280 -88.800011 -69.571991 0.748596 65.037491 37.081650 80.391296 -37.728519 0.000000 0.000000 0.000000 -90.008293 0.538407 -82.762543 -17.223730 -34.946011 66.247101 -1.550666 -17.067110 -6.133547 0.000000 0.000000 0.000000 -94.158882 86.031509 15.164260 89.968193 3.547457 89.997414 -5.390538 0.070476 0.035502 177.339401 90.000000 0.000000 -117.526802 88.354279 39.541870 -89.986954 -1.459506 89.998650 7.896957 0.341212 -0.141512 180.000000 -90.000000 0.000000 
10.593300 92.766998 4.720200 -5.774759 -1.818234 -2.579118 -89.999992 -90.000000 0.000000 0.006986 -0.038798 0.349302 0.022401 -0.116748 1.167479 0.000000 0.000000 0.000000 0.000000 0.000000 0.000000 89.996513 -0.094831 -88.725357 -69.784981 -0.003267 65.431450 37.503250 80.481163 -38.144260 0.000000 0.000000 0.000000 -90.008110 0.536149 -82.793007 -17.054779 -34.928699 66.421227 -1.543656 -17.004730 -6.131494 0.000000 0.000000 0.000000 -94.206123 85.930069 15.069740 89.968079 3.560325 89.997414 -5.222035 0.165685 0.077424 177.067200 90.000000 0.000000 -114.878403 88.268372 36.753979 -89.986641 -1.493795 89.998627 8.076502 0.143291 -0.052734 180.000198 -90.000000 0.000000 
10.623200 92.769897 4.637200 -5.625831 -1.856447 -2.577539 -89.999992 -90.000000 0.000000 0.007727 -0.060009 0.364254 0.025824 -0.193096 1.224586 0.000000 0.000000 0.000000 0.000000 0.000000 0.000000 89.996368 -0.100337 -88.651390 -70.434196 -0.968589 66.053009 37.284752 80.434860 -37.928780 0.000000 0.000000 0.000000 -90.008392 0.539676 -82.745506 -16.917191 -34.853069 66.500557 -1.548058 -17.043900 -6.132783 0.000000 0.000000 0.000000 -94.862869 85.941589 15.342450 89.964973 3.906586 89.997261 -5.073286 0.316464 0.155587 176.633408 90.000000 0.000000 -114.892899 88.296227 36.514210 -89.985443 -1.627206 89.998520 8.312539 0.132259 -0.052197 180.003693 -90.000000 0.000000 
10.649400 92.778099 4.577300 -5.537917 -1.984218 -2.556716 -89.999992 -90.000000 0.000000 0.008192 -0.069406 0.380815 0.019109 -0.230092 1.236705 0.000000 0.000000 0.000000 0.000000 0.000000 0.000000 89.996208 -0.107388 -88.556686 -71.278748 -2.246583 67.006081 36.409889 80.243500 -37.066330 0.000000 0.000000 0.000000 -90.008858 0.545492 -82.667122 -16.854309 -34.655361 66.555031 -1.548803 -17.050541 -6.133001 0.000000 0.000000 0.000000 -95.547249 85.976799 15.718130 89.962082 4.228844 89.997139 -5.091650 0.259866 0.150491 176.425201 90.000000 0.000000 -116.684402 88.343109 38.077782 -89.983276 -1.868686 89.998337 8.468558 0.181144 -0.079206 180.013702 -90.000000 0.000000 
10.644300 92.788300 4.617900 -5.621068 -2.104004 -2.569731 -89.999992 -90.000000 0.000000 0.000462 -0.069027 0.369540 -0.004062 -0.249996 1.200604 0.000000 0.000000 0.000000 0.000000 0.000000 0.000000 89.996033 -0.115812 -88.443497 -71.987648 -3.690340 68.041962 35.764339 80.095879 -36.430260 0.000000 0.000000 0.000000 -90.009354 0.551493 -82.586288 -16.926991 -34.255058 66.591858 -1.557505 -17.127930 -6.135559 0.000000 0.000000 0.000000 -95.394119 85.980713 15.698020 89.962387 4.194262 89.997147 -5.253149 0.092680 0.089506 176.730896 90.000000 0.000000 -117.806801 88.339394 39.271412 -89.982483 -1.957406 89.998283 8.406131 0.283020 -0.132320 180.020493 -90.000000 0.000000 
10.638700 92.798401 4.703400 -5.788516 -2.130650 -2.594954 -89.999992 -90.000000 0.000000 -0.017278 -0.081527 0.327104 -0.039656 -0.276795 1.116653 0.000000 0.000000 0.000000 0.000000 0.000000 0.000000 89.995857 -0.124364 -88.328613 -72.467209 -4.756581 68.756126 35.636028 80.065872 -36.303871 0.000000 0.000000 0.000000 -90.009804 0.557015 -82.511887 -17.001200 -33.863991 66.599800 -1.575435 -17.287189 -6.140862 0.000000 0.000000 0.000000 -94.766411 85.979507 15.449380 89.964828 3.922807 89.997253 -5.412441 -0.020364 0.035173 177.297302 90.000000 0.000000 -118.070801 88.327698 39.808208 -89.983383 -1.856576 89.998360 8.262349 0.473297 -0.232952 180.014099 -90.000000 0.000000 
10.675000 92.805702 4.753800 -5.913797 -2.048132 -2.599234 -89.999992 -90.000000 0.000000 -0.025494 -0.093849 0.296763 -0.076557 -0.321403 0.992236 0.000000 0.000000 0.000000 0.000000 0.000000 0.000000 89.995720 -0.131833 -88.228256 -72.736130 -4.993040 68.864464 35.481041 80.029289 -36.151211 0.000000 0.000000 0.000000 -90.010239 0.562119 -82.443130 -16.930281 -33.696079 66.587151 -1.585618 -17.377520 -6.143897 0.000000 0.000000 0.000000 -94.409264 85.992447 15.383140 89.967033 3.677042 89.997353 -5.407809 -0.199744 -0.055491 177.517700 90.000000 0.000000 -118.456703 88.339127 40.350578 -89.983459 -1.847747 89.998367 8.163634 0.567616 -0.265998 180.004196 -90.000000 0.000000 
10.717300 92.815598 4.781800 -6.016969 -1.951296 -2.600694 -89.999992 -90.000000 0.000000 -0.032318 -0.111194 0.255061 -0.102296 -0.374905 0.842446 0.000000 0.000000 0.000000 0.000000 0.000000 0.000000 89.995644 -0.137450 -88.152863 -72.781647 -4.476936 68.550522 35.199211 79.961952 -35.873661 0.000000 0.000000 0.000000 -90.010628 0.566733 -82.380913 -16.772051 -33.658760 66.576920 -1.579147 -17.320129 -6.141965 0.000000 0.000000 0.000000 -94.232300 85.989098 15.412240 89.968643 3.496521 89.997429 -5.102130 -0.470070 -0.181435 177.009598 90.000000 0.000000 -118.280701 88.332657 40.314220 -89.984123 -1.774556 89.998421 7.961542 0.458845 -0.159226 180.000504 -90.000000 0.000000 
10.736400 92.828499 4.824600 -6.139021 -1.886503 -2.601983 -89.999992 -90.000000 0.000000 -0.034207 -0.124960 0.208550 -0.108680 -0.413919 0.686516 0.000000 0.000000 0.000000 0.000000 0.000000 0.000000 89.995590 -0.140389 -88.113411 -72.671051 -3.708308 68.213707 35.273548 79.979820 -35.946869 0.000000 0.000000 0.000000 -90.010941 0.570366 -82.331917 -16.591089 -33.664429 66.591858 -1.558425 -17.136110 -6.135828 0.000000 0.000000 0.000000 -94.024406 85.986763 15.443690 89.970680 3.269345 89.997543 -4.678280 -0.546908 -0.220365 176.282806 90.000000 0.000000 -117.826599 88.313881 40.165791 -89.987297 -1.420069 89.998688 7.666840 0.303312 -0.043451 180.000595 -90.000000 0.000000 
10.765800 92.834396 4.863200 -6.235270 -1.843728 -2.567085 -89.999992 -90.000000 0.000000 -0.029703 -0.127350 0.163879 -0.095155 -0.414701 0.541157 0.000000 0.000000 0.000000 0.000000 0.000000 0.000000 89.995613 -0.139378 -88.126999 -72.505898 -2.982289 68.036324 35.871880 80.120872 -36.536201 0.000000 0.000000 0.000000 -90.011108 0.572290 -82.306000 -16.405041 -33.692650 66.626747 -1.539422 -16.967030 -6.130255 0.000000 0.000000 0.000000 -93.958000 86.057983 15.606890 89.972580 3.057230 89.997658 -4.466379 -0.248257 -0.101419 176.005600 90.000000 0.000000 -118.735001 88.349800 41.298100 -89.989319 -1.194200 89.998878 7.568377 0.246223 -0.038043 180.001801 -90.000000 0.000000 
10.811800 92.833099 4.870000 -6.276703 -1.827912 -2.497034 -89.999992 -90.000000 0.000000 -0.022143 -0.118323 0.128686 -0.068547 -0.367389 0.414806 0.000000 0.000000 0.000000 0.000000 0.000000 0.000000 89.995697 -0.133181 -88.210274 -72.250000 -2.282165 67.987297 36.879269 80.347382 -37.528992 0.000000 0.000000 0.000000 -90.011078 0.571871 -82.311668 -16.235849 -33.708351 66.661850 -1.532730 -16.907419 -6.128306 0.000000 0.000000 0.000000 -94.055077 86.177643 15.815420 89.973717 2.930480 89.997726 -4.504459 0.009909 0.005578 176.093903 90.000000 0.000000 -120.996498 88.435677 43.573669 -89.988472 -1.289068 89.998787 7.614133 0.277086 -0.095017 180.018402 -90.000000 0.000000 
